<?xml version="1.0" encoding="UTF-8" standalone="no"?>
<!-- Created with Inkscape (http://www.inkscape.org/) -->

<svg
   xmlns:osb="http://www.openswatchbook.org/uri/2009/osb"
   xmlns:dc="http://purl.org/dc/elements/1.1/"
   xmlns:cc="http://creativecommons.org/ns#"
   xmlns:rdf="http://www.w3.org/1999/02/22-rdf-syntax-ns#"
   xmlns:svg="http://www.w3.org/2000/svg"
   xmlns="http://www.w3.org/2000/svg"
   xmlns:sodipodi="http://sodipodi.sourceforge.net/DTD/sodipodi-0.dtd"
   xmlns:inkscape="http://www.inkscape.org/namespaces/inkscape"
   width="210mm"
   height="297mm"
   viewBox="0 0 744.09448819 1052.3622047"
   id="svg2"
   version="1.1"
   inkscape:version="0.91 r13725"
   sodipodi:docname="drawing.svg">
  <defs
     id="defs4">
    <linearGradient
       id="linearGradient5594"
       osb:paint="solid">
      <stop
         style="stop-color:#000000;stop-opacity:1;"
         offset="0"
         id="stop5596" />
    </linearGradient>
  </defs>
  <sodipodi:namedview
     id="base"
     pagecolor="#ffffff"
     bordercolor="#666666"
     borderopacity="1.0"
     inkscape:pageopacity="0.0"
     inkscape:pageshadow="2"
     inkscape:zoom="1.4"
     inkscape:cx="353.65069"
     inkscape:cy="721.96113"
     inkscape:document-units="px"
     inkscape:current-layer="layer1"
     showgrid="false"
     inkscape:window-width="1364"
     inkscape:window-height="751"
     inkscape:window-x="0"
     inkscape:window-y="1040"
     inkscape:window-maximized="0" />
  <metadata
     id="metadata7">
    <rdf:RDF>
      <cc:Work
         rdf:about="">
        <dc:format>image/svg+xml</dc:format>
        <dc:type
           rdf:resource="http://purl.org/dc/dcmitype/StillImage" />
        <dc:title></dc:title>
      </cc:Work>
    </rdf:RDF>
  </metadata>
  <g
     inkscape:label="Layer 1"
     inkscape:groupmode="layer"
     id="layer1"
     style="display:inline">
    <rect
       style="opacity:1;fill:none;fill-opacity:1;stroke:#000000;stroke-width:6.44816446;stroke-miterlimit:4;stroke-dasharray:none;stroke-opacity:1"
       id="rect4148"
       width="625.78046"
       height="285.06616"
       x="46.038342"
       y="195.54341" />
    <path
       style="fill:none;fill-rule:evenodd;stroke:#000000;stroke-width:1px;stroke-linecap:butt;stroke-linejoin:miter;stroke-opacity:1"
       d="M 154.28571,283.79078 C 545,282.3622 547.14286,282.3622 547.14286,282.3622 l -1.42857,0"
       id="path5613"
       inkscape:connector-curvature="0" />
    <path
       style="fill:none;fill-rule:evenodd;stroke:#000000;stroke-width:1px;stroke-linecap:butt;stroke-linejoin:miter;stroke-opacity:1"
       d="M 547.85714,305.21935 C 155,305.93363 155,307.3622 155,307.3622 l 0,-0.71428 0,0 0,0"
       id="path5615"
       inkscape:connector-curvature="0" />
    <ellipse
       style="opacity:1;fill:none;fill-opacity:1;stroke:#000000;stroke-width:5.97800016;stroke-miterlimit:4;stroke-dasharray:none;stroke-opacity:1"
       id="path5619"
       cx="135.71428"
       cy="295.93362"
       rx="23.571428"
       ry="21.428572" />
    <ellipse
       style="opacity:1;fill:none;fill-opacity:1;stroke:#000000;stroke-width:5.97800016;stroke-miterlimit:4;stroke-dasharray:none;stroke-opacity:1"
       id="path5621"
       cx="563.92859"
       cy="293.43362"
       rx="21.785715"
       ry="21.071428" />
    <path
       style="fill:none;fill-rule:evenodd;stroke:#000000;stroke-width:1px;stroke-linecap:butt;stroke-linejoin:miter;stroke-opacity:1"
       d="m 154.64284,380.5765 c 390.71429,-1.42858 392.85715,-1.42858 392.85715,-1.42858 l -1.42857,0"
       id="path5613-5"
       inkscape:connector-curvature="0" />
    <path
       style="fill:none;fill-rule:evenodd;stroke:#000000;stroke-width:1px;stroke-linecap:butt;stroke-linejoin:miter;stroke-opacity:1"
       d="m 548.21427,402.00507 c -392.85714,0.71428 -392.85714,2.14285 -392.85714,2.14285 l 0,-0.71428 0,0 0,0"
       id="path5615-9"
       inkscape:connector-curvature="0" />
    <ellipse
       style="opacity:1;fill:none;fill-opacity:1;stroke:#000000;stroke-width:5.97800016;stroke-miterlimit:4;stroke-dasharray:none;stroke-opacity:1"
       id="path5619-6"
       cx="136.07141"
       cy="392.71933"
       rx="23.571428"
       ry="21.428572" />
    <ellipse
       style="opacity:1;fill:none;fill-opacity:1;stroke:#000000;stroke-width:5.97800016;stroke-miterlimit:4;stroke-dasharray:none;stroke-opacity:1"
       id="path5621-2"
       cx="564.28571"
       cy="390.21933"
       rx="21.785715"
       ry="21.071428" />
    <rect
       style="opacity:1;fill:none;fill-opacity:1;stroke:#000000;stroke-width:5.97800016;stroke-miterlimit:4;stroke-dasharray:none;stroke-opacity:1"
       id="rect5674"
       width="108.57143"
       height="211.42857"
       x="80"
       y="243.79077" />
    <rect
       style="opacity:1;fill:none;fill-opacity:1;stroke:#000000;stroke-width:5.97800016;stroke-miterlimit:4;stroke-dasharray:none;stroke-opacity:1"
       id="rect5676"
       width="105.71429"
       height="212.85715"
       x="515"
       y="237.3622" />
    <rect
       style="opacity:1;fill:#ffffff;fill-opacity:1;stroke:#ffffff;stroke-width:5.97800016;stroke-miterlimit:4;stroke-dasharray:none;stroke-opacity:1"
       id="rect5795"
       width="17.142857"
       height="15.714286"
       x="148.57143"
       y="384.50507" />
    <rect
       style="opacity:1;fill:#ffffff;fill-opacity:1;stroke:#ffffff;stroke-width:5.97800016;stroke-miterlimit:4;stroke-dasharray:none;stroke-opacity:1"
       id="rect5808"
       width="18.571428"
       height="15"
       x="534.28571"
       y="383.07648" />
    <rect
       style="opacity:1;fill:#ffffff;fill-opacity:1;stroke:#ffffff;stroke-width:5.97800016;stroke-miterlimit:4;stroke-dasharray:none;stroke-opacity:1"
       id="rect5812"
       width="24.285715"
       height="15.714286"
       x="534.28571"
       y="285.93362" />
    <rect
       style="opacity:1;fill:#ffffff;fill-opacity:1;stroke:#ffffff;stroke-width:5.97800016;stroke-miterlimit:4;stroke-dasharray:none;stroke-opacity:1"
       id="rect5814"
       width="19.285715"
       height="15"
       x="149.28572"
       y="288.07648" />
    <path
       style="opacity:1;fill:#ffffff;fill-opacity:1;stroke:#ffffff;stroke-width:5.97800016;stroke-miterlimit:4;stroke-dasharray:none;stroke-opacity:1"
       id="path5820"
       d="m 309.11978,339.67017 c 2.57861,-2.40451 5.4018,-4.52033 8.24174,-6.60145 4.85129,-3.39773 10.17094,-6.13283 15.30249,-9.04111 2.36467,-1.34017 4.77139,-2.53932 7.22939,-3.69671 3.88692,-1.53157 7.89656,-2.78377 11.93007,-3.87521 2.9742,-0.90039 6.04332,-0.4991 9.08596,-0.32431 5.19996,0.59815 10.41168,1.07987 15.61919,1.61014 2.84892,0.34292 5.71422,1.02062 8.38815,2.08443 0.1414,0.0563 3.10043,1.48369 3.29931,1.57944 2.66323,1.24617 5.34122,2.45972 7.76704,4.13457 1.26996,0.99585 1.95919,2.45351 2.57358,3.90549 0.73783,1.73685 1.19758,3.54948 1.51446,5.40397 0.24162,1.84131 0.30004,3.69909 0.3326,5.55374 -0.005,1.68026 -9.5e-4,3.36053 9.5e-4,5.04079 0.0505,1.41519 -0.0906,2.84278 0.0641,4.25201 0.3677,1.32032 0.53742,2.03335 -0.58116,3.02496 -3.26105,1.84909 -6.47709,3.77992 -9.78314,5.54728 -0.346,0.18496 -0.75704,0.20764 -1.14017,0.29213 -2.39502,0.52817 -4.85058,0.66942 -7.29068,0.83214 -5.05284,0.2543 -10.11566,0.21293 -15.17337,0.20371 -6.19231,-0.0238 -12.38618,0.0553 -18.57598,-0.14035 -7.97622,-0.38736 -15.96616,-0.34143 -23.92654,-0.99955 -4.67251,-0.62067 -9.64533,-0.52351 -14.06616,-2.39936 -0.53013,-0.22494 -1.02173,-0.53163 -1.53259,-0.79744 -2.3344,-1.48649 -3.65457,-3.74698 -4.26347,-6.38404 -0.24286,-2.08494 -0.45677,-4.17556 -0.68746,-6.26381 -0.0291,-0.3046 -0.0583,-0.60921 -0.0874,-0.91381 0,0 9.30081,-4.83736 9.30081,-4.83736 l 0,0 c 0.0217,0.3021 0.0434,0.6042 0.0651,0.9063 0.18484,2.05933 0.46154,4.10804 0.62117,6.16883 0.458,2.37733 1.51106,4.39141 3.65924,5.67422 4.61652,2.3447 9.80666,2.67166 14.88221,3.21362 7.9921,0.68466 16.01726,0.54013 24.02904,0.85611 6.2182,0.12655 12.438,0.0282 18.65724,0.0466 5.09745,-0.0342 10.20038,-0.0377 15.28878,-0.38153 1.97145,-0.17305 3.93851,-0.33731 5.87477,-0.77011 3.89603,-0.87085 9.42044,-4.58862 -5.66251,4.04292 1.31528,-0.7958 1.52,-0.27038 1.05432,-2.00477 -0.22514,-1.45179 -0.0548,-2.93174 -0.0973,-4.39671 0.01,-1.67771 0.0291,-3.35554 0.0116,-5.03326 -0.002,-1.81261 -0.008,-3.63089 -0.22847,-5.43291 -0.2597,-1.77765 -0.69427,-3.49356 -1.43886,-5.13619 -0.57861,-1.25618 -1.06659,-2.59078 -2.20045,-3.46186 -2.34402,-1.65501 -4.94374,-2.87398 -7.53461,-4.08982 -3.57697,-1.74205 -7.31866,-3.11808 -11.31444,-3.49118 -5.21986,-0.55213 -10.4459,-1.10201 -15.67939,-1.4916 -3.0347,-0.0868 -6.07685,-0.24143 -9.02008,0.66754 -3.92645,1.06166 -7.85226,2.22138 -11.58777,3.84142 -2.35587,1.13844 -2.48008,1.1679 -4.80312,2.41487 -0.79756,0.42811 -3.15004,1.78393 -2.37783,1.31163 12.6545,-7.73975 4.63005,-2.73394 1.9255,-0.97993 -2.72568,1.98431 -5.43306,3.99781 -7.90821,6.29373 0,0 -9.7577,4.04177 -9.7577,4.04177 z"
       inkscape:connector-curvature="0" />
    <path
       style="fill:none;fill-rule:evenodd;stroke:#000000;stroke-width:1px;stroke-linecap:butt;stroke-linejoin:miter;stroke-opacity:1"
       d="m 559.28571,295.93363 7.14286,-36.42857 7.85714,-27.14286 7.14286,-23.57142 5,-21.42858 7.85714,-15 10.00001,-12.85714 13.57143,-7.85714 17.14285,-8.57143 15.71429,-1.42857 8.57142,-1.42857 0,0"
       id="path5826"
       inkscape:connector-curvature="0"
       sodipodi:nodetypes="cccccccccccc" />
    <path
       style="fill:none;fill-rule:evenodd;stroke:#000000;stroke-width:1px;stroke-linecap:butt;stroke-linejoin:miter;stroke-opacity:1"
       d="M 573.57143,292.3622 580,263.07649 l 7.85714,-21.42857 8.57143,-25 4.28572,-15 5.71428,-21.42857 12.14286,-12.14286 11.42857,-8.57143 10.71428,-3.57142 12.14286,-4.28572 7.85715,-0.71429 3.57142,-0.71428 3.57143,-0.71429 0,0"
       id="path5828"
       inkscape:connector-curvature="0"
       sodipodi:nodetypes="cccccccccccccc" />
    <path
       style="fill:none;fill-rule:evenodd;stroke:#000000;stroke-width:1px;stroke-linecap:butt;stroke-linejoin:miter;stroke-opacity:1"
       d="m 137.14286,296.64792 -1.42858,-7.14286 0.7143,-6.42857 -1.42858,-8.57143 1.42857,-10.71428 c 0,0 -0.71429,1.42856 -1.42857,-2.85715 -0.71429,-4.28572 -1.42857,-6.42857 -1.42857,-6.42857 l -2.14286,-7.85714 -2.14286,-5.71429 -0.71428,-3.57143 -4.28572,-5.71428 c -2.38095,-3.33333 2.14286,-1.42857 -4.99999,-11.42857 l -7.14286,-7.85714 -6.42858,-10.00001 -7.857137,-12.14285 -6.428571,-10 -7.857143,-7.85714 L 74.285714,160.93363 65,153.79078 l -5.714286,-5 -7.142857,-2.85715 L 45,143.07649"
       id="path5830"
       inkscape:connector-curvature="0"
       sodipodi:nodetypes="cccccscccccccccccccccc" />
    <path
       style="fill:none;fill-rule:evenodd;stroke:#000000;stroke-width:1px;stroke-linecap:butt;stroke-linejoin:miter;stroke-opacity:1"
       d="m 127.14286,294.50506 -2.85715,-9.28571 -0.71428,-8.57143 -1.42857,-5 -0.71429,-5 c 0,0 -2.14286,-1.42857 -2.14286,-5 0,-3.57143 -1.42857,-5 -1.42857,-5 l -1.42857,-3.57143 -4.28571,-7.85714 -1.42857,-5.71429 -2.14286,-2.85714 -2.85714,-6.42857 -2.85715,-4.28572 -2.14285,-7.14285 -3.571433,-5 -2.857143,-6.42858 -2.857142,-3.57142 -5,-5 -3.571429,-6.42858 -1.428571,-2.85714 c 0,0 0,0 -2.857143,-4.28571 C 75.714286,180.93363 70,177.3622 70,177.3622 l -10,-11.42857 -5,-2.85714 -5,-2.85714 -5,-2.14286 -2.857143,-1.42857 -0.714286,-2.85714"
       id="path5832"
       inkscape:connector-curvature="0" />
  </g>
  <g
     inkscape:groupmode="layer"
     id="layer2"
     inkscape:label="Layer 2"
     style="display:none" />
</svg>
